<svg xmlns="http://www.w3.org/2000/svg"  viewBox="0 0 48 48" width="48px" height="48px"><path d="M 25.777344 1.0488281 C 24.816836 1.0530159 23.920927 1.1489414 23.132812 1.3105469 C 22.081995 1.5260205 21.255523 1.734184 20.490234 2.4609375 C 19.574396 3.3311044 17.595533 3.9495369 15.476562 4.8496094 C 13.357592 5.7496819 10.978072 7.198076 10.087891 10.109375 C 9.8844845 10.775551 8.9037338 12.21836 8.0429688 13.955078 C 7.1822036 15.691796 6.4619017 17.93579 7.1171875 20.429688 C 7.6539249 22.471098 8.8071523 24.63457 9.3828125 26.363281 C 8.9793802 26.638566 8.6202545 26.966619 8.3222656 27.332031 C 7.4727301 28.373783 7.0234375 29.69073 7.0234375 31.048828 C 7.0234375 33.765024 9.220009 36.048828 12.023438 36.048828 C 12.097808 36.048828 12.260545 36.047028 12.351562 36.048828 C 12.736966 37.733565 13.260746 39.200332 13.970703 40.636719 A 1.50015 1.50015 0 0 0 13.970703 40.638672 C 16.027167 44.796878 21.113805 46.861725 26.037109 47.037109 C 28.498762 47.124799 30.968279 46.722215 33.101562 45.689453 C 35.234848 44.656691 37.042981 42.933195 37.902344 40.539062 C 38.563262 38.697519 39.027599 36.882497 39.357422 35.103516 C 41.439565 34.460717 43.023438 32.725037 43.023438 30.578125 C 43.023438 28.659401 41.746704 27.06388 39.998047 26.292969 C 39.966125 24.994773 39.894955 23.744598 39.794922 22.537109 C 40.114868 22.171854 41.646114 20.983298 42.511719 19.111328 C 42.959196 18.143607 43.187907 16.916242 42.912109 15.609375 C 42.665622 14.441395 41.988131 13.236284 40.960938 11.988281 C 40.894889 10.068152 40.54114 8.3964387 39.439453 7.1171875 C 38.283451 5.7748672 36.57433 4.9961142 34.291016 4.2421875 C 32.172345 2.0730261 29.284554 1.2276789 26.757812 1.0761719 C 26.424903 1.0562101 26.097513 1.0474322 25.777344 1.0488281 z M 25.626953 10.048828 C 29.582833 10.075178 33.453947 11.884454 35.314453 15.273438 C 34.753142 15.097786 34.137787 15.001953 33.478516 15.001953 C 31.71627 15.001953 30.267974 15.690966 29.326172 16.740234 C 28.38437 17.789503 27.935547 19.152558 27.935547 20.501953 C 27.935547 21.851348 28.38437 23.214404 29.326172 24.263672 C 30.267974 25.31294 31.71627 26.001953 33.478516 26.001953 C 34.855519 26.001953 36.035737 25.577114 36.9375 24.892578 C 37.170362 29.427319 36.921496 34.389133 35.078125 39.525391 C 34.507988 41.113758 33.374638 42.223512 31.794922 42.988281 C 30.215206 43.753051 28.198879 44.112246 26.144531 44.039062 C 22.035836 43.892697 17.964692 41.946388 16.660156 39.308594 C 15.82773 37.624427 15.309678 36.326176 15.005859 34.322266 A 1.50015 1.50015 0 0 0 13.449219 33.050781 C 12.979671 33.074091 12.512631 33.048828 12.023438 33.048828 C 10.620864 33.048828 10.023438 32.386632 10.023438 31.048828 C 10.023438 30.379926 10.27177 29.688013 10.646484 29.228516 C 11.021199 28.769018 11.444832 28.53125 12.023438 28.53125 C 12.247948 28.53125 12.51676 28.519412 12.808594 28.513672 C 13.100428 28.507972 13.576157 28.572516 13.230469 28.503906 A 1.50015 1.50015 0 0 0 15.023438 27.046875 C 15.062007 22.952127 15.141292 19.670919 15.142578 19.617188 C 15.394663 16.205934 16.74259 13.897392 18.640625 12.349609 C 20.541272 10.799697 23.059761 10.03173 25.626953 10.048828 z M 21.478516 15.048828 C 19.71627 15.048828 18.267974 15.737841 17.326172 16.787109 C 16.38437 17.836378 15.935547 19.199433 15.935547 20.548828 C 15.935547 21.898223 16.38437 23.261279 17.326172 24.310547 C 18.267974 25.359815 19.71627 26.048828 21.478516 26.048828 C 23.240761 26.048828 24.689057 25.359815 25.630859 24.310547 C 26.572661 23.261279 27.023437 21.898223 27.023438 20.548828 C 27.023438 19.199433 26.572661 17.836378 25.630859 16.787109 C 24.689057 15.737841 23.240761 15.048828 21.478516 15.048828 z M 33.478516 17.001953 C 34.745602 17.001953 35.569714 17.43794 36.142578 18.076172 C 36.215574 18.157497 36.271632 18.252882 36.335938 18.341797 C 36.354742 18.466571 36.382156 18.585445 36.396484 18.712891 C 36.513773 19.75563 36.626247 20.847599 36.728516 21.960938 C 36.582887 22.315765 36.393251 22.648458 36.142578 22.927734 C 35.569714 23.565966 34.745602 24.001953 33.478516 24.001953 C 32.211429 24.001953 31.387317 23.565966 30.814453 22.927734 C 30.241589 22.289503 29.935547 21.402558 29.935547 20.501953 C 29.935547 19.601348 30.241589 18.714404 30.814453 18.076172 C 31.387317 17.43794 32.211429 17.001953 33.478516 17.001953 z M 21.478516 17.048828 C 22.745602 17.048828 23.569714 17.484815 24.142578 18.123047 C 24.715442 18.761279 25.023437 19.648223 25.023438 20.548828 C 25.023438 21.449433 24.715442 22.336378 24.142578 22.974609 C 23.569714 23.612841 22.745602 24.048828 21.478516 24.048828 C 20.211429 24.048828 19.387317 23.612841 18.814453 22.974609 C 18.241589 22.336378 17.935547 21.449433 17.935547 20.548828 C 17.935547 19.648223 18.241589 18.761279 18.814453 18.123047 C 19.387317 17.484815 20.211429 17.048828 21.478516 17.048828 z M 21.023438 20.048828 C 20.471438 20.048828 20.023438 20.495828 20.023438 21.048828 C 20.023438 21.601828 20.471438 22.048828 21.023438 22.048828 C 21.576437 22.048828 22.023438 21.601828 22.023438 21.048828 C 22.023438 20.495828 21.576438 20.048828 21.023438 20.048828 z M 33.023438 20.048828 C 32.471437 20.048828 32.023438 20.495828 32.023438 21.048828 C 32.023438 21.601828 32.471438 22.048828 33.023438 22.048828 C 33.575437 22.048828 34.023438 21.601828 34.023438 21.048828 C 34.023438 20.495828 33.575437 20.048828 33.023438 20.048828 z M 27.792969 24.035156 A 1.0001 1.0001 0 0 0 26.890625 25.369141 C 26.890625 25.369141 27.874466 28.280124 28.472656 30.048828 L 26.0625 30.048828 A 1.0001 1.0001 0 1 0 26.0625 32.048828 L 28.982422 32.048828 C 29.509373 32.048828 30.004484 31.792179 30.310547 31.365234 C 30.616088 30.939017 30.697708 30.389392 30.53125 29.892578 A 1.0001 1.0001 0 0 0 30.53125 29.888672 C 29.973215 28.238567 28.785156 24.728516 28.785156 24.728516 A 1.0001 1.0001 0 0 0 27.792969 24.035156 z M 40.003906 28.765625 C 40.59613 29.267047 41.023438 29.867123 41.023438 30.578125 C 41.023438 31.378238 40.483226 32.03034 39.746094 32.541016 C 39.894105 31.255552 39.97305 29.99558 40.003906 28.765625 z M 32.056641 35.035156 A 1.0001 1.0001 0 0 0 31.166016 35.533203 C 29.86335 37.704028 27.859246 38.072055 25.945312 37.951172 C 24.031379 37.830288 22.427734 37.132812 22.427734 37.132812 A 1.0003764 1.0003764 0 1 0 21.619141 38.962891 C 21.619141 38.962891 23.493043 39.800399 25.818359 39.947266 C 28.143676 40.094132 31.140525 39.462675 32.880859 36.5625 A 1.0001 1.0001 0 0 0 32.056641 35.035156 z"/></svg>