<svg xmlns="http://www.w3.org/2000/svg"  viewBox="0 0 48 48" width="10px" height="10px"><path d="M 25.490234 1.0488281 C 21.908234 1.1288281 18.795109 2.1194375 16.287109 3.8984375 C 16.276109 3.9094375 16.272719 3.9245469 16.261719 3.9355469 C 13.532719 6.5185469 11.849484 10.443328 11.521484 14.986328 C 11.483484 15.512328 11.045391 15.914062 10.525391 15.914062 C 10.501391 15.914062 10.476172 15.912156 10.451172 15.910156 C 9.9001719 15.871156 9.4873438 15.391797 9.5273438 14.841797 C 9.7973437 11.101797 10.918234 7.72325 12.740234 5.03125 C 10.892234 5.22925 8.9548281 5.8044531 7.2988281 7.1894531 C 5.1308281 9.0034531 3.8772656 11.863547 3.5722656 15.685547 C 3.2812656 19.330547 4.2781875 21.819516 5.2421875 24.228516 C 6.7901875 28.095516 8.2532969 31.748547 4.1542969 40.935547 C 3.9402969 41.415547 3.9929219 41.97425 4.2949219 42.40625 C 4.5769219 42.80925 5.0354375 43.048828 5.5234375 43.048828 C 5.5564375 43.048828 5.591 43.046922 5.625 43.044922 C 5.9359015 43.024195 12.855 42.470811 16.605469 35.787109 C 16.806186 35.852712 17.003801 35.926041 17.212891 35.970703 C 17.992606 38.479764 18.835784 40.551749 19.841797 42.037109 C 22.004801 45.229949 25.726551 47.048828 29.724609 47.048828 C 30.205706 47.048828 30.693317 47.02278 31.183594 46.96875 C 35.545221 46.492506 39.259887 43.902127 40.75 40.089844 L 40.75 40.087891 C 43.096152 34.082458 44.422008 23.598442 40.78125 12.851562 C 40.69002 12.582251 40.585842 12.319828 40.470703 12.064453 C 40.519989 11.842762 40.537106 11.61392 40.478516 11.380859 C 39.192516 6.2508594 36.870234 0.82482812 25.490234 1.0488281 z M 29.130859 9.1992188 C 30.682879 9.1138354 32.185173 9.2943302 33.517578 9.6894531 C 35.721888 10.491305 37.318969 11.982783 37.939453 13.814453 C 38.174262 14.507568 38.379564 15.200836 38.570312 15.892578 C 37.733316 15.367849 36.701447 15.048828 35.523438 15.048828 C 33.773438 15.048828 32.335616 15.739131 31.402344 16.789062 C 30.469071 17.838994 30.023436 19.201606 30.023438 20.548828 C 30.023438 21.89605 30.469071 23.256709 31.402344 24.306641 C 32.335616 25.356573 33.773438 26.048828 35.523438 26.048828 C 37.273437 26.048828 38.713212 25.356573 39.646484 24.306641 C 39.742032 24.19915 39.828729 24.086313 39.914062 23.972656 C 40.307228 30.120656 39.292038 35.576493 37.955078 38.998047 C 36.914777 41.660888 34.243184 43.616639 30.857422 43.986328 C 30.478361 44.028158 30.098871 44.048828 29.724609 44.048828 C 26.630668 44.048828 23.889168 42.662629 22.326172 40.355469 C 21.497927 39.13258 20.606276 37.065095 19.802734 34.287109 A 1.50015 1.50015 0 0 0 18.363281 33.203125 C 17.819306 33.202192 17.3215 33.044356 16.902344 32.78125 C 16.829596 32.71446 16.749211 32.655849 16.662109 32.603516 C 16.054248 32.119277 15.664063 31.389988 15.664062 30.564453 C 15.664062 30.202153 15.744218 29.854336 15.882812 29.535156 C 16.149913 29.086662 16.550701 28.741034 17.037109 28.574219 C 17.576586 28.389905 17.937386 27.915714 18.017578 27.369141 A 1.50015 1.50015 0 0 0 18.130859 26.712891 C 18.024184 24.837185 18.071444 23.174795 18.173828 21.769531 C 18.360607 22.706709 18.761692 23.605727 19.417969 24.347656 C 20.348967 25.400161 21.785312 26.095703 23.533203 26.095703 C 25.281094 26.095703 26.719393 25.400161 27.650391 24.347656 C 28.581389 23.295151 29.023437 21.93117 29.023438 20.582031 C 29.023438 19.232893 28.581389 17.870865 27.650391 16.818359 C 26.719393 15.765854 25.281094 15.070313 23.533203 15.070312 C 21.785312 15.070313 20.348967 15.765854 19.417969 16.818359 C 19.09717 17.181026 18.855047 17.588742 18.648438 18.011719 C 18.72539 17.619403 18.786356 17.366227 18.787109 17.363281 A 1.50015 1.50015 0 0 0 18.794922 17.330078 C 19.450688 14.490157 20.955776 12.519771 22.771484 11.210938 C 24.537859 10.043938 26.413531 9.5698594 27.519531 9.3808594 C 28.058531 9.2883594 28.597369 9.2285684 29.130859 9.1992188 z M 35.523438 17.048828 C 36.773437 17.048828 37.585617 17.481573 38.152344 18.119141 C 38.719071 18.756709 39.023438 19.64605 39.023438 20.548828 C 39.023438 21.451606 38.719071 22.338994 38.152344 22.976562 C 37.585617 23.614131 36.773437 24.048828 35.523438 24.048828 C 34.273438 24.048828 33.463211 23.614131 32.896484 22.976562 C 32.329757 22.338994 32.023438 21.451606 32.023438 20.548828 C 32.023438 19.64605 32.329757 18.756709 32.896484 18.119141 C 33.463211 17.481573 34.273438 17.048828 35.523438 17.048828 z M 23.533203 17.070312 C 24.778644 17.070312 25.586676 17.503083 26.152344 18.142578 C 26.718012 18.782073 27.023437 19.67517 27.023438 20.582031 C 27.023438 21.488893 26.718012 22.38199 26.152344 23.021484 C 25.586676 23.660979 24.778644 24.095703 23.533203 24.095703 C 22.287762 24.095703 21.481684 23.660979 20.916016 23.021484 C 20.350348 22.38199 20.044922 21.488893 20.044922 20.582031 C 20.044922 19.67517 20.350348 18.782073 20.916016 18.142578 C 21.481684 17.503083 22.287762 17.070312 23.533203 17.070312 z M 25.023438 20.048828 A 1 1 0 0 0 25.023438 22.048828 A 1 1 0 0 0 25.023438 20.048828 z M 37.023438 20.052734 C 36.471438 20.052734 36.023438 20.499781 36.023438 21.050781 C 36.023438 21.601781 36.471438 22.048828 37.023438 22.048828 C 37.575437 22.048828 38.023438 21.601781 38.023438 21.050781 C 38.023438 20.499781 37.575437 20.052734 37.023438 20.052734 z M 30.035156 24.082031 A 1.0001 1.0001 0 0 0 29.130859 25.544922 C 29.130859 25.544922 30.512568 28.285863 31.400391 30.048828 L 29.023438 30.048828 A 1.0001 1.0001 0 1 0 29.023438 32.048828 L 31.78125 32.048828 C 32.393115 32.048828 32.965497 31.728718 33.285156 31.208984 C 33.605173 30.68867 33.633209 30.037556 33.359375 29.492188 A 1.0001 1.0001 0 0 0 33.357422 29.490234 C 32.490197 27.767788 30.917969 24.644531 30.917969 24.644531 A 1.0001 1.0001 0 0 0 30.035156 24.082031 z M 35.070312 34.728516 A 1.50015 1.50015 0 0 0 34.017578 35.128906 C 32.230231 36.743638 30.903468 36.699769 29.8125 36.416016 C 28.721532 36.132262 28.037109 35.517578 28.037109 35.517578 A 1.5006447 1.5006447 0 1 0 26.011719 37.732422 C 26.011719 37.732422 27.208311 38.839067 29.058594 39.320312 C 30.908876 39.80156 33.581644 39.566737 36.029297 37.355469 A 1.50015 1.50015 0 0 0 35.070312 34.728516 z"/></svg>